<svg width="82" height="82" viewBox="0 0 82 82" fill="none" xmlns="http://www.w3.org/2000/svg">
<path d="M53.8125 43.5625C53.8125 46.9606 52.4626 50.2195 50.0598 52.6223C47.657 55.0251 44.3981 56.375 41 56.375C37.6019 56.375 34.343 55.0251 31.9402 52.6223C29.5374 50.2195 28.1875 46.9606 28.1875 43.5625C28.1875 40.1644 29.5374 36.9055 31.9402 34.5027C34.343 32.0999 37.6019 30.75 41 30.75C44.3981 30.75 47.657 32.0999 50.0598 34.5027C52.4626 36.9055 53.8125 40.1644 53.8125 43.5625Z" fill="#F7ECDA"/>
<path d="M10.25 20.5C7.53153 20.5 4.9244 21.5799 3.00216 23.5022C1.07991 25.4244 0 28.0315 0 30.75L0 61.5C0 64.2185 1.07991 66.8256 3.00216 68.7478C4.9244 70.6701 7.53153 71.75 10.25 71.75H71.75C74.4685 71.75 77.0756 70.6701 78.9978 68.7478C80.9201 66.8256 82 64.2185 82 61.5V30.75C82 28.0315 80.9201 25.4244 78.9978 23.5022C77.0756 21.5799 74.4685 20.5 71.75 20.5H65.7435C63.0253 20.4994 60.4185 19.4191 58.4967 17.4968L54.2533 13.2532C52.3315 11.3309 49.7247 10.2506 47.0065 10.25H34.9935C32.2753 10.2506 29.6686 11.3309 27.7467 13.2532L23.5033 17.4968C21.5814 19.4191 18.9747 20.4994 16.2565 20.5H10.25ZM12.8125 30.75C12.1329 30.75 11.4811 30.48 11.0005 29.9995C10.52 29.5189 10.25 28.8671 10.25 28.1875C10.25 27.5079 10.52 26.8561 11.0005 26.3755C11.4811 25.895 12.1329 25.625 12.8125 25.625C13.4921 25.625 14.1439 25.895 14.6245 26.3755C15.105 26.8561 15.375 27.5079 15.375 28.1875C15.375 28.8671 15.105 29.5189 14.6245 29.9995C14.1439 30.48 13.4921 30.75 12.8125 30.75ZM58.9375 43.5625C58.9375 48.3198 57.0477 52.8823 53.6837 56.2462C50.3198 59.6102 45.7573 61.5 41 61.5C36.2427 61.5 31.6802 59.6102 28.3163 56.2462C24.9523 52.8823 23.0625 48.3198 23.0625 43.5625C23.0625 38.8052 24.9523 34.2427 28.3163 30.8788C31.6802 27.5148 36.2427 25.625 41 25.625C45.7573 25.625 50.3198 27.5148 53.6837 30.8788C57.0477 34.2427 58.9375 38.8052 58.9375 43.5625Z" fill="#F7ECDA"/>
</svg>
