<svg width="69" height="69" viewBox="0 0 69 69" fill="none" xmlns="http://www.w3.org/2000/svg">
<path d="M34.5 0.498931C31.5702 0.498931 29.1923 2.73878 29.1923 5.3077H39.8077C39.8077 2.89801 37.4298 0.498931 34.5 0.498931ZM13.187 1.32693C10.3925 1.54455 7.60858 2.83962 5.30769 5.14316C0.711232 9.73962 -0.204345 16.3822 4.39477 20.9787L21.0662 4.30985C18.768 2.01162 15.9788 1.10932 13.1817 1.32693H13.187ZM53.7404 1.32693C51.6677 1.60558 49.6588 2.58751 47.9338 4.31251L64.6052 20.9813C69.2043 16.3849 68.2888 9.74228 63.6923 5.14316C60.8182 2.26374 57.1957 0.862508 53.7404 1.32693ZM34.5 8.46047C18.6512 8.46047 5.80396 21.3024 5.80396 37.1539C5.80396 46.6573 10.4641 55.07 17.5817 60.2927L15.5091 66.4284C15.3701 66.8688 15.4042 67.3456 15.6043 67.7617C15.8045 68.1778 16.1557 68.502 16.5865 68.6683C17.0072 68.8717 17.4894 68.9078 17.9357 68.7694C18.382 68.631 18.7592 68.3283 18.9909 67.9225L21.7297 62.8617C25.6983 64.8314 30.0695 65.8542 34.5 65.8499C39.0832 65.8499 43.4275 64.7751 47.273 62.8643L50.0064 67.9252C50.2718 68.4533 51.2033 69.199 52.4135 68.6709C52.8443 68.5047 53.1955 68.1805 53.3957 67.7643C53.5959 67.3482 53.6299 66.8714 53.4909 66.4311L51.4183 60.2954C58.5359 55.0726 63.196 46.6599 63.196 37.1565C63.196 21.3077 50.3488 8.46047 34.5 8.46047ZM31.8462 15.4242V17.25C31.8477 17.6981 31.9626 18.1385 32.1802 18.5301C32.3979 18.9218 32.7111 19.2519 33.0908 19.4899C32.9069 19.7613 32.793 20.074 32.7591 20.4001L32.0956 33.7543C31.5554 34.1411 31.1155 34.6515 30.8127 35.2428C30.5098 35.8342 30.3528 36.4894 30.3547 37.1539C30.3547 39.4547 32.1991 41.3018 34.5 41.3018C34.646 41.3018 34.7733 41.2328 34.914 41.2169L43.0427 48.4327C43.4992 48.8414 44.6457 49.1492 45.6117 48.1832C46.5803 47.2146 46.2592 46.0761 45.8611 45.6143L38.648 37.321V37.1539C38.648 35.6863 37.8863 34.4124 36.7372 33.6694L36.2409 20.4001C36.207 20.074 36.0931 19.7613 35.9092 19.4899C36.2889 19.2519 36.6021 18.9218 36.8198 18.5301C37.0374 18.1385 37.1523 17.6981 37.1539 17.25V15.4242C46.989 16.6237 54.8868 24.3782 56.2297 34.1683H54.4038C54.2934 34.1614 54.1826 34.1614 54.0721 34.1683C53.6741 34.1817 53.2828 34.2745 52.9212 34.4412C52.5595 34.608 52.2348 34.8452 51.966 35.1391C51.6973 35.433 51.4899 35.7775 51.3562 36.1526C51.2224 36.5277 51.1648 36.9257 51.1869 37.3234C51.209 37.721 51.3103 38.1102 51.4848 38.4681C51.6593 38.8261 51.9035 39.1456 52.2032 39.4079C52.5028 39.6702 52.8518 39.87 53.2297 39.9956C53.6076 40.1213 54.0068 40.1701 54.4038 40.1394H56.2297C54.9028 49.8207 47.1668 57.554 37.4856 58.8835V57.0577C37.498 56.6027 37.4061 56.1508 37.2168 55.7369C37.0275 55.3229 36.7459 54.9578 36.3936 54.6695C36.0413 54.3813 35.6277 54.1776 35.1844 54.074C34.7412 53.9705 34.2801 53.9698 33.8365 54.0721C33.1631 54.2228 32.563 54.6031 32.1393 55.1479C31.7156 55.6926 31.4947 56.3679 31.5144 57.0577V58.8835C21.8332 57.5566 14.0999 49.8207 12.7703 40.1394H14.5962C15.388 40.1394 16.1474 39.8249 16.7073 39.265C17.2672 38.7051 17.5817 37.9457 17.5817 37.1539C17.5817 36.362 17.2672 35.6026 16.7073 35.0427C16.1474 34.4828 15.388 34.1683 14.5962 34.1683H12.7703C14.1158 24.3756 22.011 16.6237 31.8462 15.4242Z" fill="#F7ECDA"/>
</svg>
