<svg width="64" height="64" viewBox="0 0 64 64" fill="none" xmlns="http://www.w3.org/2000/svg">
<path d="M53.3334 8C54.7479 8 56.1044 8.5619 57.1046 9.5621C58.1048 10.5623 58.6667 11.9188 58.6667 13.3333V50.6667C58.6667 52.0812 58.1048 53.4377 57.1046 54.4379C56.1044 55.4381 54.7479 56 53.3334 56H10.6667C9.25222 56 7.89566 55.4381 6.89547 54.4379C5.89528 53.4377 5.33337 52.0812 5.33337 50.6667V13.3333C5.33337 11.9188 5.89528 10.5623 6.89547 9.5621C7.89566 8.5619 9.25222 8 10.6667 8H53.3334ZM53.3334 13.3333H10.6667V40.2667L23.9867 26.9493C24.2962 26.6397 24.6637 26.3941 25.0682 26.2265C25.4727 26.059 25.9062 25.9727 26.344 25.9727C26.7819 25.9727 27.2154 26.059 27.6199 26.2265C28.0243 26.3941 28.3918 26.6397 28.7014 26.9493L39.5414 37.792L42.8427 34.4907C43.1522 34.181 43.5197 33.9354 43.9242 33.7679C44.3287 33.6003 44.7622 33.514 45.2 33.514C45.6379 33.514 46.0714 33.6003 46.4759 33.7679C46.8803 33.9354 47.2478 34.181 47.5574 34.4907L53.3334 40.2693V13.3333ZM41.3334 18.6667C42.3942 18.6667 43.4117 19.0881 44.1618 19.8382C44.9119 20.5884 45.3334 21.6058 45.3334 22.6667C45.3334 23.7275 44.9119 24.7449 44.1618 25.4951C43.4117 26.2452 42.3942 26.6667 41.3334 26.6667C40.2725 26.6667 39.2551 26.2452 38.5049 25.4951C37.7548 24.7449 37.3334 23.7275 37.3334 22.6667C37.3334 21.6058 37.7548 20.5884 38.5049 19.8382C39.2551 19.0881 40.2725 18.6667 41.3334 18.6667Z" fill="#F7ECDA"/>
</svg>
